PathFileType	4	(X/Y/Z)	./resultDataOpenSim/trcMotMarkerGrf/sub09/qtm-14-03.trc
DataRate	CameraRate	NumFrames	NumMarkers	Units	OrigDataRate	OrigDataStartFrame	OrigNumFrames
250.000000	250.000000	6	24	m	250.000000	304	486
Frame#	Time	L.Toe.Tip			R.Toe.Tip			L.Ankle.Lat			R.Ankle.Lat			L.Ankle.Med			R.Ankle.Med			L.Heel			R.Heel			L.Knee.Lat			R.Knee.Lat			L.Knee.Med			R.Knee.Med			L.Thigh.Upper			R.Thigh.Upper			L.ASIS			R.ASIS			V.Sacral			L.Acromium			R.Acromium			C7			L.Elbow			R.Elbow			L.Wrist.Lat			R.Wrist.Lat
		X1	Y1	Z1	X2	Y2	Z2	X3	Y3	Z3	X4	Y4	Z4	X5	Y5	Z5	X6	Y6	Z6	X7	Y7	Z7	X8	Y8	Z8	X9	Y9	Z9	X10	Y10	Z10	X11	Y11	Z11	X12	Y12	Z12	X13	Y13	Z13	X14	Y14	Z14	X15	Y15	Z15	X16	Y16	Z16	X17	Y17	Z17	X18	Y18	Z18	X19	Y19	Z19	X20	Y20	Z20	X21	Y21	Z21	X22	Y22	Z22	X23	Y23	Z23	X24	Y24	Z24

304	1.212	0.19961485	-0.023144301	0.046242078	1.1120456	0.041514615	0.057749371	0.15584031	0.1152077	-0.040468309	0.9669197	0.052313536	0.10348308	0.18817499	0.12024238	0.051554425	0.96485392	0.092771303	0.012345642	0.093898035	0.1528542	0.0017061054	0.89465049	0.031951697	0.060176143	0.46583989	0.40198578	-0.089334656	0.94872846	0.50813521	0.17049655	0.48072847	0.388234	0.034797617	0.92536858	0.49435677	0.044381403	0.60781891	0.78526434	-0.10934032	0.69327319	0.81292176	0.25495035	0.72277258	0.85749631	-0.072693147	0.75459338	0.89012611	0.16432176	0.57742878	0.93708584	0.064434504	0.7754094	1.3197436	-0.11032597	0.74285414	1.3371285	0.21801286	0.69318789	1.3821846	0.047722829	0.6541516	0.95916758	-0.18931114	0.5448572	1.0462718	0.30758102	0.90985473	0.86095016	-0.16009082	0.59651919	0.78839895	0.38811698
305	1.216	0.20199044	-0.021391133	0.045534019	1.1123809	0.04123537	0.057707309	0.16214323	0.11868623	-0.040930598	0.96768328	0.051998688	0.10314208	0.19499372	0.12282841	0.050876024	0.96532136	0.092814556	0.01210441	0.10143857	0.15796953	0.0015021807	0.894806	0.032029339	0.060152748	0.47683099	0.39982322	-0.090874841	0.95512262	0.50680719	0.16811584	0.49163683	0.38549362	0.033086036	0.93235784	0.49527321	0.043438273	0.6152406	0.78408379	-0.1090643	0.69994207	0.81374765	0.25526035	0.72972709	0.85689521	-0.072044115	0.7614559	0.89081329	0.16476395	0.58444224	0.93693268	0.06432446	0.7825839	1.3193509	-0.11033458	0.74975582	1.3368648	0.21798368	0.69997342	1.3820686	0.047532841	0.66040449	0.95911825	-0.18894398	0.55249676	1.0453416	0.30740279	0.91504966	0.85843601	-0.15956587	0.60495859	0.78760468	0.38798469
306	1.22	0.20455676	-0.019619999	0.044706125	1.1126331	0.041021926	0.057408874	0.16880226	0.12236074	-0.04129092	0.96823779	0.051815441	0.10287644	0.20214025	0.12550593	0.050332119	0.96574301	0.092874738	0.011803981	0.10934782	0.1632161	0.0014625755	0.8949155	0.03208399	0.060060103	0.48797611	0.3976735	-0.092418667	0.9607078	0.50558025	0.16620598	0.50248343	0.3827929	0.031507238	0.93886772	0.49578965	0.042544198	0.62256758	0.78299925	-0.10875926	0.70661823	0.81460553	0.25553068	0.73655161	0.8564192	-0.071417894	0.7682428	0.89149438	0.16518271	0.59137942	0.93691436	0.06427447	0.78969636	1.3190388	-0.11030889	0.75658572	1.3367066	0.21792587	0.70661344	1.3820226	0.047262574	0.66664605	0.95916316	-0.18856087	0.56012523	1.0444823	0.30724031	0.92014362	0.85588151	-0.15905457	0.6134599	0.78689893	0.38781812
307	1.224	0.20728505	-0.017846192	0.043694248	1.1128299	0.040854272	0.056926477	0.17582721	0.12622735	-0.041584876	0.96855707	0.051797927	0.10270282	0.2096145	0.12826225	0.049909457	0.96609809	0.092866765	0.011459269	0.11763462	0.16861465	0.0015833452	0.8949917	0.032110971	0.05991474	0.49927739	0.39556803	-0.093924904	0.96547241	0.5049995	0.16525906	0.51337412	0.38015449	0.030121583	0.94484842	0.49592398	0.041727437	0.62982924	0.7820056	-0.1084287	0.71330305	0.81546787	0.25577015	0.7432498	0.856078	-0.07083225	0.7749381	0.89212463	0.16557357	0.59824534	0.93703585	0.064293806	0.79673089	1.318813	-0.11025326	0.76334119	1.3366592	0.21783652	0.71320937	1.3820504	0.047020668	0.67287941	0.95930389	-0.18816873	0.5677636	1.0437021	0.30710498	0.9251348	0.85329255	-0.15855868	0.62197331	0.786288	0.38761175
308	1.228	0.21015784	-0.016017995	0.042462867	1.1129812	0.040718529	0.056486244	0.18322911	0.1302929	-0.041857551	0.96868144	0.051903082	0.10260703	0.21740283	0.13109618	0.049584588	0.96638593	0.092762224	0.011120741	0.12630409	0.17419358	0.0018581022	0.89503354	0.032111912	0.059744429	0.51074019	0.39352306	-0.095345194	0.96971124	0.5048862	0.16494967	0.52449946	0.37763341	0.028875707	0.95032161	0.49575714	0.041002652	0.63702833	0.78110737	-0.10809663	0.71999666	0.81631957	0.25598583	0.74983027	0.85588177	-0.070292831	0.78152914	0.89268606	0.16594158	0.60496427	0.93730225	0.064421551	0.80366878	1.318686	-0.11018791	0.77001193	1.3367346	0.21771137	0.71982953	1.3821665	0.046879036	0.67910218	0.95954223	-0.18776829	0.57545704	1.0430207	0.30701513	0.9300211	0.85067715	-0.15808052	0.63048393	0.78577037	0.38735097
309	1.232	0.21318239	-0.014047335	0.040992763	1.1130797	0.040609414	0.056240326	0.19100575	0.13456704	-0.042157112	0.96868503	0.052045003	0.10256917	0.22548848	0.13401075	0.049326401	0.96661606	0.09259361	0.010843931	0.13537041	0.17996318	0.0022767973	0.89503591	0.032094924	0.059590706	0.52236319	0.39154847	-0.096635728	0.97391242	0.5047943	0.16479384	0.53603698	0.37531082	0.027650122	0.95537288	0.49539327	0.040366998	0.64416118	0.78031437	-0.10780591	0.72669909	0.81714578	0.25618099	0.75630196	0.85582853	-0.069802805	0.7880146	0.8931782	0.16629527	0.61139294	0.93770814	0.064704099	0.81049315	1.3186665	-0.1101278	0.77659363	1.3369379	0.21754921	0.72646961	1.3823786	0.046834161	0.68530562	0.9598756	-0.18735527	0.58323914	1.0424586	0.30698927	0.9348019	0.84804518	-0.15762633	0.63903798	0.78533614	0.38702516
